<?xml version="1.0" encoding="UTF-8"?>
<svg width="218px" height="243px" viewBox="0 0 218 243" version="1.1" xmlns="http://www.w3.org/2000/svg" xmlns:xlink="http://www.w3.org/1999/xlink">
    <!-- Generator: Sketch 48.2 (47327) - http://www.bohemiancoding.com/sketch -->
    <title>Slice 1</title>
    <desc>Created with Sketch.</desc>
    <defs>
        <path d="M70.4336,0.6055 L55.5664,0.6055 C110.735,0.6758 155.4336,45.4184 155.4336,100.6064 C155.4336,155.7873 110.7333,200.5331 55.5664,200.6055 L70.4336,200.6055 C125.6621,200.6055 170.4336,155.832 170.4336,100.6064 C170.4336,45.375 125.6621,0.6055 70.4336,0.6055 Z M44.5132,150.5176 L15.6953,100.6064 L44.5132,50.6943 L29.5132,50.6943 L0.6953,100.6064 L29.5132,150.5176 L44.5132,150.5176 Z" id="path-1"></path>
    </defs>
    <g id="Page-1" stroke="none" stroke-width="1" fill="none" fill-rule="evenodd">
        <g id="Clipped" transform="translate(46.000000, 40.000000)">
            <mask id="mask-2" fill="white">
                <use xlink:href="#path-1"></use>
            </mask>
            <g id="Shape"></g>
            <g id="Group" mask="url(#mask-2)" stroke="#8400FF" stroke-width="3">
                <g transform="translate(-9.000000, 0.000000)" id="Shape">
                    <polyline points="0.8491 0.6045 213.2402 0.6045 213.2402 0.6045"></polyline>
                    <polyline points="0.8491 7.502 213.2402 7.502 213.2402 7.502"></polyline>
                    <polyline points="0.8491 14.3975 213.2402 14.3975 213.2402 14.3975"></polyline>
                    <polyline points="0.8491 21.2939 213.2402 21.2939 213.2402 21.2939"></polyline>
                    <polyline points="0.8491 28.1914 213.2402 28.1914 213.2402 28.1914"></polyline>
                    <polyline points="0.8491 35.0879 213.2402 35.0879 213.2402 35.0879"></polyline>
                    <polyline points="0.8491 41.9834 213.2402 41.9834 213.2402 41.9834"></polyline>
                    <polyline points="0.8491 48.8809 213.2402 48.8809 213.2402 48.8809"></polyline>
                    <polyline points="0.8491 55.7773 213.2402 55.7773 213.2402 55.7773"></polyline>
                    <polyline points="0.8491 62.6738 213.2402 62.6738 213.2402 62.6738"></polyline>
                    <polyline points="0.8491 69.5703 213.2402 69.5703 213.2402 69.5703"></polyline>
                    <polyline points="0.8491 76.4668 213.2402 76.4668 213.2402 76.4668"></polyline>
                    <polyline points="0.8491 83.3633 213.2402 83.3633 213.2402 83.3633"></polyline>
                    <polyline points="0.8491 90.2598 213.2402 90.2598 213.2402 90.2598"></polyline>
                    <polyline points="0.8491 97.1563 213.2402 97.1563 213.2402 97.1563"></polyline>
                    <polyline points="0.8491 104.0527 213.2402 104.0527 213.2402 104.0527"></polyline>
                    <polyline points="0.8491 110.9492 213.2402 110.9492 213.2402 110.9492"></polyline>
                    <polyline points="0.8491 117.8457 213.2402 117.8457 213.2402 117.8457"></polyline>
                    <polyline points="0.8491 124.7422 213.2402 124.7422 213.2402 124.7422"></polyline>
                    <polyline points="0.8491 131.6387 213.2402 131.6387 213.2402 131.6387"></polyline>
                    <polyline points="0.8491 138.5352 213.2402 138.5352 213.2402 138.5352"></polyline>
                    <polyline points="0.8491 145.4316 213.2402 145.4316 213.2402 145.4316"></polyline>
                    <polyline points="0.8491 152.3281 213.2402 152.3281 213.2402 152.3281"></polyline>
                    <polyline points="0.8491 159.2246 213.2402 159.2246 213.2402 159.2246"></polyline>
                    <polyline points="0.8491 166.1221 213.2402 166.1221 213.2402 166.1221"></polyline>
                    <polyline points="0.8491 173.0186 213.2402 173.0186 213.2402 173.0186"></polyline>
                    <polyline points="0.8491 179.915 213.2402 179.915 213.2402 179.915"></polyline>
                    <polyline points="0.8491 186.8115 213.2402 186.8115 213.2402 186.8115"></polyline>
                    <polyline points="0.8491 193.708 213.2402 193.708 213.2402 193.708"></polyline>
                    <polyline points="0.8491 200.6045 213.2402 200.6045 213.2402 200.6045"></polyline>
                </g>
            </g>
        </g>
        <path d="M61.6948,140.6064 L90.5132,90.6943 L129.6133,90.6943 L158.4258,140.6064 L129.6133,190.5195 L90.5132,190.5195 L61.6948,140.6064 Z M101.5659,40.6055 C46.3379,40.6055 1.5679,85.376 1.5679,140.6064 C1.5679,195.832 46.3379,240.6045 101.5659,240.6045 L116.4326,240.6045 C171.6611,240.6045 216.4336,195.832 216.4336,140.6064 C216.4336,85.376 171.6611,40.6055 116.4326,40.6055 L101.5659,40.6055 Z" id="Shape"></path>
        <path d="M116.4336,40.6055 L101.5664,40.6055 C46.3384,40.6055 1.5664,85.375 1.5664,140.6064 C1.5664,195.832 46.3384,240.6055 101.5664,240.6055 L116.4336,240.6055 C171.6621,240.6055 216.4336,195.832 216.4336,140.6064 C216.4336,85.375 171.6621,40.6055 116.4336,40.6055 Z M130.3828,190.5176 L90.5132,190.5176 L61.6953,140.6064 L90.5132,90.6943 L130.3828,90.6943 L159.2002,140.6064 L130.3828,190.5176 Z" id="Shape" stroke="#8400FF" stroke-width="3"></path>
        <path d="M101.5664,40.6055 C46.3384,40.6055 1.5664,85.375 1.5664,140.6064 C1.5664,195.832 46.3384,240.6055 101.5664,240.6055 C156.7949,240.6055 201.5664,195.832 201.5664,140.6064 C201.5664,85.375 156.7949,40.6055 101.5664,40.6055 Z M130.3828,190.5176 L72.75,190.5176 L43.9321,140.6064 L72.75,90.6943 L130.3828,90.6943 L159.2002,140.6064 L130.3828,190.5176 Z" id="Shape" stroke="#8400FF" stroke-width="3"></path>
        <path d="M101.5664,53.7246 C53.5835,53.7246 14.6875,92.6211 14.6875,140.6064 C14.6875,188.5859 53.5835,227.4844 101.5664,227.4844 C149.5498,227.4844 188.4453,188.5859 188.4453,140.6064 C188.4453,92.6211 149.5498,53.7246 101.5664,53.7246 Z" id="Shape" stroke="#8400FF" stroke-width="3"></path>
        <polygon id="Shape" stroke="#8400FF" stroke-width="3" points="130.3828 190.5176 72.75 190.5176 43.9321 140.6064 72.75 90.6943 130.3828 90.6943 159.2002 140.6064"></polygon>
        <path d="M101.5664,40.6045 C46.3384,40.6045 1.5664,85.376 1.5664,140.6064 C1.5664,195.833 46.3384,240.6045 101.5664,240.6045 C156.7949,240.6045 201.5664,195.833 201.5664,140.6064 C201.5664,85.376 156.7949,40.6045 101.5664,40.6045 Z" id="Shape" stroke="#8400FF" stroke-width="3"></path>
        <polyline id="Shape" stroke="#8400FF" stroke-width="3" points="108.5361 17.8535 108.5361 1.749 108.5361 1.749"></polyline>
        <polyline id="Shape" stroke="#8400FF" stroke-width="3" points="135.0664 20.7813 139.6807 6.1406 139.6807 6.1406"></polyline>
        <polyline id="Shape" stroke="#8400FF" stroke-width="3" points="82.0059 20.7813 77.3921 6.1406 77.3921 6.1406"></polyline>
    </g>
</svg>