<?xml version="1.0" encoding="UTF-8"?>
<svg width="218px" height="242px" viewBox="-7 19 218 242" version="1.1" xmlns="http://www.w3.org/2000/svg" xmlns:xlink="http://www.w3.org/1999/xlink">
    <!-- Generator: Sketch 48.2 (47327) - http://www.bohemiancoding.com/sketch -->
    <title>coin</title>
    <desc>Created with Sketch.</desc>
    <defs>
        <path d="M70.4336,0.6055 L55.5664,0.6055 C110.735,0.6758 155.4336,45.4184 155.4336,100.6064 C155.4336,155.7873 110.7333,200.5331 55.5664,200.6055 L70.4336,200.6055 C125.6621,200.6055 170.4336,155.832 170.4336,100.6064 C170.4336,45.375 125.6621,0.6055 70.4336,0.6055 Z M44.5132,150.5176 L15.6953,100.6064 L44.5132,50.6943 L29.5132,50.6943 L0.6953,100.6064 L29.5132,150.5176 L44.5132,150.5176 Z" id="path-1"></path>
    </defs>
    <g id="Page-1" stroke="none" stroke-width="1" fill="none" fill-rule="evenodd">
        <g id="coin">
            <g id="nectarcoin" transform="translate(1.000000, 0.000000)">
                <g id="Clipped" transform="translate(45.000000, 39.000000)">
                    <mask id="mask-2" fill="white">
                        <use xlink:href="#path-1"></use>
                    </mask>
                    <g id="Shape"></g>
                    <g id="Group" mask="url(#mask-2)" stroke="rgb(46, 255, 108)" stroke-width="4">
                        <g transform="translate(-9.000000, 0.000000)" id="Shape">
                            <polyline points="0.8491 0.6045 0.6045 0.6045"></polyline>
                            <polyline points="0.8491 7.502 7.502 7.502"></polyline>
                            <polyline points="0.8491 14.3975 14.3975 14.3975"></polyline>
                            <polyline points="0.8491 21.2939 21.2939 21.2939"></polyline>
                            <polyline points="0.8491 35.0879 35.0879 35.0879"></polyline>
                            <polyline points="0.8491 41.9834 41.9834 41.9834"></polyline>
                            <polyline points="0.8491 48.8809 48.8809 48.8809"></polyline>
                            <polyline points="0.8491 55.7773 55.7773 55.7773"></polyline>
                            <polyline points="0.8491 62.6738 62.6738 62.6738"></polyline>
                            <polyline points="0.8491 69.5703 69.5703 69.5703"></polyline>
                            <polyline points="0.8491 76.4668 76.4668 76.4668"></polyline>
                            <polyline points="0.8491 83.3633 83.3633 83.3633"></polyline>
                            <polyline points="0.8491 90.2598 90.2598 90.2598"></polyline>
                            <polyline points="0.8491 97.1563 97.1563 97.1563"></polyline>
                            <polyline points="0.8491 104.0527 104.0527 104.0527"></polyline>
                            <polyline points="0.8491 110.9492 110.9492 110.9492"></polyline>
                            <polyline points="0.8491 117.8457 117.8457 117.8457"></polyline>
                            <polyline points="0.8491 124.7422 124.7422 124.7422"></polyline>
                            <polyline points="0.8491 131.6387 131.6387 131.6387"></polyline>
                            <polyline points="0.8491 138.5352 138.5352 138.5352"></polyline>
                            <polyline points="0.8491 145.4316 145.4316 145.4316"></polyline>
                            <polyline points="0.8491 152.3281 152.3281 152.3281"></polyline>
                        </g>
                    </g>
                </g>
                <path d="M60.6948,139.6064 L89.5132,89.6943 L128.6133,89.6943 L157.4258,139.6064 L128.6133,189.5195 L89.5132,189.5195 L60.6948,139.6064 Z M100.5659,39.6055 C45.3379,39.6055 0.5679,84.376 0.5679,139.6064 C0.5679,194.832 45.3379,239.6045 100.5659,239.6045 L115.4326,239.6045 C170.6611,239.6045 215.4336,194.832 215.4336,139.6064 C215.4336,84.376 170.6611,39.6055 115.4326,39.6055 L100.5659,39.6055 Z" id="Shape"></path>
                <path d="M100.5664,39.6055 C45.3384,39.6055 0.5664,84.375 0.5664,139.6064 C0.5664,194.832 45.3384,239.6055 100.5664,239.6055 C155.7949,239.6055 200.5664,194.832 200.5664,139.6064 C200.5664,84.375 155.7949,39.6055 100.5664,39.6055 Z M129.3828,189.5176 L71.75,189.5176 L42.9321,139.6064 L71.75,89.6943 L129.3828,89.6943 L158.2002,139.6064 L129.3828,189.5176 Z" id="Shape" stroke="#FFFFFF" stroke-width="4"></path>
                <path d="M100.5664,52.7246 C52.5835,52.7246 13.6875,91.6211 13.6875,139.6064 C13.6875,187.5859 52.5835,226.4844 100.5664,226.4844 C148.5498,226.4844 187.4453,187.5859 187.4453,139.6064 C187.4453,91.6211 148.5498,52.7246 100.5664,52.7246 Z" id="Shape" stroke="#FFFFFF" stroke-width="4"></path>
                <polygon id="Shape" stroke="#FFFFFF" stroke-width="4" points="129.3828 189.5176 71.75 189.5176 42.9321 139.6064 71.75 89.6943 129.3828 89.6943 158.2002 139.6064"></polygon>
                <path d="M100.5664,39.6045 C45.3384,39.6045 0.5664,84.376 0.5664,139.6064 C0.5664,194.833 45.3384,239.6045 100.5664,239.6045 C155.7949,239.6045 200.5664,194.833 200.5664,139.6064 C200.5664,84.376 155.7949,39.6045 100.5664,39.6045 Z" id="Shape" stroke="#FFFFFF" stroke-width="4"></path>
            </g>
        </g>
    </g>
</svg>