<?xml version="1.0" encoding="utf-8"?>
<!-- Generator: Adobe Illustrator 16.0.4, SVG Export Plug-In . SVG Version: 6.00 Build 0)  -->
<!DOCTYPE svg PUBLIC "-//W3C//DTD SVG 1.1//EN" "http://www.w3.org/Graphics/SVG/1.1/DTD/svg11.dtd">
<svg version="1.1" id="Layer_1" xmlns="http://www.w3.org/2000/svg" xmlns:xlink="http://www.w3.org/1999/xlink" x="0px" y="0px"
	 width="464.42px" height="78.517px" viewBox="0 0 464.42 78.517" enable-background="new 0 0 464.42 78.517" xml:space="preserve">
<g>
	<g>
		<g>
			<path fill="#FFFFFF" d="M176.26,22.308c-9.788,0-17.978,7.391-17.978,17.528c0,10.087,8.189,17.429,17.978,17.429
				c9.737,0,17.977-7.291,17.977-17.429C194.237,29.699,185.997,22.308,176.26,22.308z M176.26,52.071
				c-6.842,0-12.085-5.394-12.085-12.235c0-6.841,5.243-12.285,12.085-12.285c6.892,0,12.035,5.444,12.035,12.285
				C188.295,46.678,183.151,52.071,176.26,52.071z"/>
		</g>
		<g>
			<path fill="#FFFFFF" d="M221.604,51.821h-14.482V25.005c0-1.499-1.199-2.697-2.796-2.697c-1.548,0-2.797,1.198-2.797,2.697
				v29.063c0,1.498,1.249,2.696,2.797,2.696h17.278c1.349,0,2.397-1.098,2.397-2.496C224.001,52.97,222.952,51.821,221.604,51.821z"
				/>
		</g>
		<g>
			<path fill="#FFFFFF" d="M251.744,22.308c-1.549,0-2.796,1.198-2.796,2.697v5.266c0,2.896-0.699,5.193-2.098,6.792
				c-1.598,1.847-3.944,2.697-6.892,2.697c-2.896,0-5.244-0.85-6.841-2.697c-1.399-1.598-2.098-3.895-2.098-6.792v-5.266
				c0-1.499-1.249-2.697-2.796-2.697c-1.548,0-2.798,1.198-2.798,2.697v6.065c0,3.895,1.049,7.191,3.147,9.538
				c2.008,2.29,4.965,3.722,8.614,4.202v9.758c0,1.498,1.248,2.697,2.796,2.697c1.497,0,2.796-1.199,2.796-2.697v-9.762
				c3.663-0.482,6.612-1.914,8.615-4.198c2.099-2.347,3.146-5.643,3.146-9.538v-6.065C254.541,23.506,253.292,22.308,251.744,22.308
				z"/>
		</g>
		<g>
			<path fill="#FFFFFF" d="M283.107,39.387c-3.047-1.897-6.592-2.597-9.788-3.695c-2.745-0.949-4.644-2.147-4.644-4.345
				c0-2.747,2.248-3.995,6.342-3.995c4.244,0,5.943,1.948,8.289,1.948c1.499,0,2.647-1.149,2.647-2.597
				c0-3.745-8.489-4.394-10.636-4.394c-8.141,0-12.535,3.745-12.535,9.238c0,3.895,1.996,6.243,4.694,7.741
				c3.097,1.698,6.591,2.347,9.388,3.445c2.498,0.999,4.295,2.298,4.295,4.594c0,2.697-1.898,4.995-6.592,4.995
				c-5.143,0-6.991-2.848-9.238-2.848c-1.448,0-2.697,1.149-2.697,2.697c0,3.246,7.143,5.094,12.035,5.094
				c7.24,0,12.585-3.796,12.585-10.387C287.252,43.183,285.455,40.835,283.107,39.387z"/>
		</g>
		<g>
			<path fill="#FFFFFF" d="M337.165,22.308c-1.549,0-2.798,1.198-2.798,2.697V44.38c0,2.647-0.697,4.445-1.797,5.644
				c-1.447,1.498-3.445,2.048-5.493,2.048c-2.099,0-3.796-0.649-4.944-1.799c-1.447-1.447-2.297-3.795-2.297-6.791V25.005
				c0-1.499-1.248-2.697-2.797-2.697c-1.547,0-2.797,1.198-2.797,2.697v18.477c0,2.996-0.898,5.344-2.347,6.791
				c-1.148,1.149-2.796,1.799-4.944,1.799c-1.997,0-4.045-0.55-5.442-2.048c-1.147-1.198-1.848-2.996-1.848-5.644V25.005
				c0-1.499-1.249-2.697-2.797-2.697s-2.796,1.198-2.796,2.697v19.426c0,4.244,1.248,7.291,3.246,9.288
				c2.446,2.547,6.042,3.495,9.588,3.495c1.947,0,4.045-0.398,5.893-1.348c1.648-0.949,3.146-2.347,4.244-4.444
				c1.049,2.098,2.547,3.495,4.194,4.444c1.848,0.949,3.946,1.348,5.894,1.348c3.596,0,7.141-0.948,9.588-3.495
				c1.998-1.997,3.246-5.044,3.246-9.288V25.005C339.96,23.506,338.712,22.308,337.165,22.308z"/>
		</g>
		<g>
			<path fill="#FFFFFF" d="M461.173,25.804c-2.445-2.547-6.042-3.496-9.588-3.496c-1.947,0-4.045,0.399-5.893,1.348
				c-1.646,0.949-3.146,2.347-4.244,4.444c-1.049-2.097-2.547-3.496-4.195-4.444c-1.848-0.949-3.944-1.348-5.893-1.348
				c-3.595,0-7.141,0.948-9.588,3.496c-1.998,1.997-3.246,5.043-3.246,9.288v19.426c0,1.499,1.248,2.696,2.797,2.696
				c1.548,0,2.796-1.197,2.796-2.696V35.142c0-2.646,0.699-4.444,1.798-5.643c1.448-1.498,3.446-2.048,5.493-2.048
				c2.099,0,3.796,0.649,4.944,1.798c1.447,1.448,2.297,3.795,2.297,6.792v18.477c0,1.499,1.25,2.696,2.797,2.696
				s2.797-1.197,2.797-2.696V36.041c0-2.996,0.898-5.343,2.347-6.792c1.149-1.149,2.796-1.798,4.943-1.798
				c1.999,0,4.045,0.55,5.444,2.048c1.147,1.198,1.848,2.996,1.848,5.643v19.376c0,1.499,1.248,2.696,2.796,2.696
				s2.797-1.197,2.797-2.696V35.092C464.42,30.847,463.171,27.801,461.173,25.804z"/>
		</g>
		<g>
			<path fill="#FFFFFF" d="M409.789,34.337c0.002-3.943-1.547-7.042-4.094-9.089c-2.396-1.898-5.093-2.447-7.988-2.447
				l-11.585-0.003c-1.548,0-2.798,1.199-2.798,2.748l-0.006,29.062c0,1.499,1.248,2.697,2.797,2.697
				c1.498,0,2.796-1.198,2.796-2.695l0.006-26.917l8.04,0.002c1.797,0,3.296,0.352,4.643,1.25c1.549,1.049,2.497,2.847,2.496,5.392
				c0,2.547-1.049,4.396-2.697,5.494c-1.061,0.707-2.521,1.111-4.174,1.111c-3.258,0-5.084,2.036-5.084,4.926
				c0,2.187,1.199,3.988,4.154,5.696l9.297,5.366c0.441,0.255,0.92,0.376,1.396,0.376c0.967,0,1.908-0.501,2.426-1.399
				c0.772-1.338,0.312-3.05-1.024-3.822l-10.767-6.217c2.736-0.018,5.421-0.48,7.721-2.242
				C408.089,41.628,409.788,38.283,409.789,34.337z"/>
		</g>
		<g>
			<path fill="#FFFFFF" d="M370.615,25.703c-2.197-2.047-5.244-3.395-9.189-3.395c-3.944,0-6.991,1.348-9.188,3.395
				c-3.146,2.797-4.596,6.992-4.596,10.987v17.877c0,1.498,1.199,2.697,2.797,2.697c1.499,0,2.797-1.199,2.797-2.697v-7.955h16.38
				v7.955c0,1.498,1.247,2.697,2.796,2.697s2.797-1.199,2.797-2.697V36.69C375.208,32.695,373.811,28.5,370.615,25.703z
				 M369.616,41.019h-16.38v-4.079c0-2.946,0.849-5.393,2.396-7.091c1.448-1.498,3.445-2.348,5.793-2.348s4.395,0.85,5.844,2.348
				c1.498,1.698,2.347,4.145,2.347,7.091V41.019z"/>
		</g>
		<g>
			<path fill="#FFFFFF" d="M142.28,22.868h-12.945c-1.544,0-2.796,1.252-2.796,2.797v28.771c0,1.545,1.252,2.797,2.796,2.797
				c1.545,0,2.798-1.252,2.798-2.797v-7.824h10.147c6.546,0,11.872-5.326,11.872-11.872
				C154.152,28.193,148.827,22.868,142.28,22.868z M142.28,41.019h-10.147V28.462h10.147c3.462,0,6.278,2.816,6.278,6.278
				C148.558,38.202,145.742,41.019,142.28,41.019z"/>
		</g>
	</g>
	<g>
		<path fill="#FFFFFF" d="M8.875,20.877h40.908c6.122,0,11.103,4.981,11.103,11.103s-4.981,11.103-11.103,11.103H27.648
			c-1.743,0-3.161,1.418-3.161,3.161s1.418,3.161,3.161,3.161h22.134c9.608,0,17.425-7.816,17.425-17.425
			s-7.817-17.425-17.425-17.425H8.875c-1.743,0-3.161,1.418-3.161,3.161S7.132,20.877,8.875,20.877z"/>
		<path fill="#FFFFFF" d="M49.783,0H33.918c-1.743,0-3.161,1.418-3.161,3.161c0,1.743,1.418,3.161,3.161,3.161h15.865
			c14.148,0,25.658,11.51,25.658,25.659c0,14.147-11.51,25.658-25.658,25.658H9.48c-1.743,0-3.161,1.418-3.161,3.161
			c0,1.742,1.417,3.16,3.161,3.16h40.302c17.634,0,31.98-14.346,31.98-31.979S67.417,0,49.783,0z"/>
		<path fill="#FFFFFF" d="M31.456,31.98c0-1.743-1.418-3.161-3.161-3.161h-7.704c-1.743,0-3.161,1.418-3.161,3.161
			c0,1.751,1.398,3.161,2.555,3.161h7.703C29.907,35.141,31.456,33.841,31.456,31.98z"/>
		<path fill="#FFFFFF" d="M21.45,72.194H3.161C1.418,72.194,0,73.612,0,75.355s1.418,3.161,3.161,3.161H21.45
			c1.743,0,3.161-1.418,3.161-3.161S23.192,72.194,21.45,72.194z"/>
	</g>
</g>
</svg>
