<?xml version="1.0" encoding="UTF-8"?>
<svg width="467px" height="467px" viewBox="0 0 467 467" version="1.1" xmlns="http://www.w3.org/2000/svg" xmlns:xlink="http://www.w3.org/1999/xlink">
    <!-- Generator: Sketch 48.2 (47327) - http://www.bohemiancoding.com/sketch -->
    <title>red-x</title>
    <desc>Created with Sketch.</desc>
    <defs></defs>
    <g id="Page-1" stroke="none" stroke-width="1" fill="none" fill-rule="evenodd">
        <g id="red-x" transform="translate(1.000000, 1.000000)">
            <g id="Group-2" transform="translate(118.000000, 118.000000)" fill="#ff1a00">
                <path d="M1.78593919,188.226965 L191.498038,5.71812808 C193.87929,3.42729064 197.740063,3.42729064 200.121315,5.71812808 L227.608011,32.1611698 C229.989263,34.4520073 229.989263,38.1661886 227.608011,40.4570261 L37.8959125,222.965863 C35.5146603,225.256701 31.6538876,225.256701 29.2726353,222.965863 L1.78593919,196.522821 C-0.595313062,194.231984 -0.595313062,190.517803 1.78593919,188.226965 Z" id="Rectangle"></path>
                <path d="M1.43095964,188.581945 L191.143058,6.07310762 C193.524311,3.78227018 197.385083,3.78227018 199.766336,6.07310762 L227.253032,32.5161494 C229.634284,34.8069868 229.634284,38.5211682 227.253032,40.8120056 L37.540933,223.320843 C35.1596807,225.61168 31.298908,225.61168 28.9176558,223.320843 L1.43095964,196.877801 C-0.950292604,194.586964 -0.950292604,190.872782 1.43095964,188.581945 Z" id="Rectangle" transform="translate(114.341996, 114.696975) rotate(90.000000) translate(-114.341996, -114.696975) "></path>
            </g>
        </g>
    </g>
</svg>
